<svg xmlns="http://www.w3.org/2000/svg" xmlns:xlink="http://www.w3.org/1999/xlink" viewBox="0 0 290.61 290.61"><defs><style>.cls-1{fill:url(#linear-gradient);}.cls-2,.cls-4{fill:none;}.cls-3{fill:#fff;}.cls-4{stroke:#fff;stroke-miterlimit:10;stroke-width:7px;}</style><linearGradient id="linear-gradient" x1="12.56" y1="303.5" x2="276.89" y2="-11.51" gradientUnits="userSpaceOnUse"><stop offset="0" stop-color="#10a7e0"/><stop offset="0.14" stop-color="#13a0da"/><stop offset="0.35" stop-color="#1c8ccb"/><stop offset="0.6" stop-color="#2a6ab1"/><stop offset="0.88" stop-color="#3d3d8d"/><stop offset="1" stop-color="#46277c"/></linearGradient></defs><title>SW KPIs Your Clients Really Care About-Asset 3</title><g id="Layer_2" data-name="Layer 2"><g id="Layer_1-2" data-name="Layer 1"><rect class="cls-1" width="290.61" height="290.61"/><path class="cls-2" d="M177.67,138.38l-47.92-27.67a5.27,5.27,0,0,0-7.91,4.56v55.34a5.28,5.28,0,0,0,7.91,4.57l47.92-27.67A5.27,5.27,0,0,0,177.67,138.38Z"/><path class="cls-3" d="M145.3,77.52c-53.23,0-79.11,22.46-79.11,68.65,0,45.65,25.14,66.91,79.12,66.91s79.1-21.26,79.1-66.91C224.41,100,198.53,77.52,145.3,77.52Zm32.37,70-47.92,27.67a5.28,5.28,0,0,1-7.91-4.57V115.27a5.27,5.27,0,0,1,7.91-4.56l47.92,27.67A5.27,5.27,0,0,1,177.67,147.51Z"/><path class="cls-4" d="M145.3,56.81C75.8,56.81,42,86.13,42,146.44,42,206,74.84,233.8,145.31,233.8S248.59,206,248.59,146.44c0-60.31-33.79-89.63-103.29-89.63"/></g></g></svg>